<?xml version="1.0" standalone="no"?>
<!DOCTYPE svg PUBLIC "-//W3C//DTD SVG 20010904//EN"
 "http://www.w3.org/TR/2001/REC-SVG-20010904/DTD/svg10.dtd">
<svg version="1.0" xmlns="http://www.w3.org/2000/svg"
 width="447.000000pt" height="559.000000pt" viewBox="0 0 447.000000 559.000000"
 preserveAspectRatio="xMidYMid meet">
<metadata>
Created by potrace 1.16, written by Peter Selinger 2001-2019
</metadata>
<g transform="translate(0.000000,559.000000) scale(0.100000,-0.100000)"
fill="#000000" stroke="none">
<path d="M2158 3882 c-14 -32 -46 -91 -72 -131 l-48 -72 -41 6 c-60 9 -155 36
-205 57 -54 22 -56 22 -47 1 35 -86 84 -279 73 -288 -7 -6 -126 -83 -158 -103
-19 -12 -31 -22 -27 -22 10 0 91 46 132 75 52 38 54 38 68 3 16 -37 65 -93 74
-85 3 4 -11 25 -31 48 -46 54 -47 83 -5 98 18 6 53 11 79 11 l47 0 29 -59 30
-60 -43 -12 c-65 -18 -65 -32 0 -24 30 4 69 4 87 0 29 -6 30 -8 13 -21 -26
-19 -93 -17 -139 5 l-39 20 -44 -42 c-24 -23 -50 -57 -57 -75 -10 -21 -19 -30
-27 -25 -7 4 -37 23 -67 42 -31 20 -76 45 -100 56 -25 11 -48 23 -51 28 -4 5
-13 7 -20 5 -8 -3 13 -17 46 -32 33 -15 93 -48 133 -74 l72 -47 -5 -40 c-4
-39 -4 -39 6 -7 5 17 11 32 12 32 1 0 20 -7 42 -15 22 -8 59 -14 83 -15 l42 0
0 -54 c0 -30 5 -67 10 -82 6 -15 9 -29 6 -31 -2 -3 -36 -11 -74 -19 -39 -8
-95 -23 -126 -34 -31 -10 -56 -17 -56 -14 0 2 7 21 15 41 8 19 15 41 15 47 -1
9 -50 -101 -50 -111 0 -1 28 8 63 21 53 20 199 56 226 56 13 0 77 -101 119
-185 l40 -79 36 72 c40 80 101 177 115 187 18 11 187 -31 283 -70 16 -6 15 1
-7 59 -23 61 -55 192 -55 226 0 19 112 93 199 132 35 16 61 32 57 35 -7 8
-105 -41 -190 -95 -37 -24 -69 -42 -70 -40 -19 44 -44 82 -66 103 l-29 27 30
25 c16 14 39 43 50 65 18 36 22 38 37 26 23 -20 143 -93 165 -101 30 -11 19 7
-14 22 -16 7 -61 34 -100 59 -73 49 -77 56 -60 121 6 20 17 65 27 101 9 36 23
78 31 93 8 16 13 30 11 32 -2 2 -48 -12 -103 -30 -55 -19 -122 -35 -149 -37
l-48 -3 -39 55 c-21 30 -54 88 -74 128 -19 39 -37 72 -38 72 -2 0 -15 -26 -29
-58z m63 -33 c17 -34 46 -83 65 -110 19 -27 34 -52 34 -57 0 -4 -15 -14 -34
-20 -19 -7 -48 -28 -65 -48 l-31 -34 -41 40 c-23 22 -52 43 -65 46 -13 3 -24
10 -24 15 0 5 20 39 44 77 25 38 52 87 62 110 9 23 18 42 20 42 2 0 18 -27 35
-61z m-371 -140 c30 -10 81 -23 113 -30 54 -10 58 -13 51 -32 -4 -12 -9 -50
-11 -84 l-5 -63 -37 0 c-21 0 -59 -6 -84 -14 -53 -16 -49 -20 -66 75 -5 31
-19 82 -30 115 -25 70 -25 68 -3 59 9 -4 42 -16 72 -26z m741 -17 c-10 -19
-35 -116 -46 -175 -4 -25 -10 -35 -18 -30 -14 9 -40 14 -92 17 l-40 3 -7 59
c-4 33 -9 67 -10 78 -3 16 11 21 92 38 52 10 99 23 104 28 14 14 27 1 17 -18z
m-470 -65 c15 -12 34 -33 42 -47 13 -22 13 -29 2 -50 -8 -14 -17 -42 -20 -63
l-7 -37 -26 19 c-15 10 -44 26 -64 34 -36 15 -38 18 -38 62 0 25 7 62 15 81
13 32 18 35 42 29 14 -3 39 -16 54 -28z m-137 -344 c28 -9 57 -18 64 -20 10
-2 8 -10 -8 -33 -11 -16 -26 -43 -31 -60 -10 -28 -15 -30 -58 -30 -69 0 -111
17 -111 45 0 19 72 115 87 115 3 0 28 -7 57 -17z m490 -4 c25 -20 66 -87 66
-108 0 -15 -59 -31 -116 -31 -39 0 -54 4 -54 14 0 7 -11 33 -24 59 l-24 45 41
11 c23 6 49 15 57 21 21 13 24 13 54 -11z m-334 -114 c0 -8 7 -35 16 -60 8
-25 12 -54 9 -65 -7 -23 -64 -67 -99 -76 -23 -5 -28 -2 -41 30 -8 19 -15 56
-15 81 0 44 0 45 58 74 66 35 72 36 72 16z m224 -67 c7 -33 -11 -125 -25 -134
-19 -11 -59 6 -99 42 -38 34 -51 66 -31 78 4 3 14 25 21 49 l12 44 58 -25 c47
-21 59 -31 64 -54z m192 -6 c4 -26 19 -84 34 -129 16 -46 26 -83 24 -83 -3 0
-19 6 -37 13 -27 12 -123 36 -204 53 -21 4 -21 6 -7 39 7 19 14 57 14 85 l0
50 43 1 c23 0 58 6 77 13 19 7 38 11 42 9 4 -2 10 -25 14 -51z m-335 -88 c13
-14 41 -35 62 -45 20 -11 37 -21 37 -23 0 -3 -17 -31 -39 -63 -21 -32 -51 -82
-66 -112 l-27 -54 -37 69 c-20 38 -51 90 -69 116 l-32 46 43 21 c24 12 54 32
67 46 29 31 31 31 61 -1z"/>
<path d="M935 2408 c-15 -12 -34 -36 -41 -55 -12 -28 -12 -38 0 -67 20 -47 55
-67 129 -73 l62 -5 0 56 0 56 -39 0 c-33 0 -37 -3 -31 -17 5 -10 8 -29 9 -43
2 -39 -35 -33 -56 10 -22 43 -24 123 -3 140 22 18 45 5 51 -30 8 -36 17 -44
44 -35 27 9 26 50 -2 69 -32 23 -90 20 -123 -6z"/>
<path d="M1128 2418 c15 -15 16 -174 2 -183 -22 -14 -7 -25 34 -25 l43 0 -10
40 c-7 26 -8 43 -1 50 16 16 35 -6 41 -49 5 -39 7 -41 39 -41 19 0 34 3 34 6
0 8 -53 78 -63 82 -4 2 4 13 18 24 30 23 33 67 7 91 -23 21 -165 26 -144 5z"/>
<path d="M1407 2410 c3 -11 9 -18 13 -15 9 6 29 -40 32 -75 3 -21 -2 -26 -26
-28 -16 -2 -32 2 -36 8 -5 7 -10 1 -14 -17 -4 -15 -15 -36 -23 -45 -15 -17
-14 -18 16 -18 28 0 31 2 21 19 -17 33 -11 41 30 41 40 0 44 -5 41 -42 -2 -15
6 -18 41 -18 l44 0 -28 85 c-38 119 -43 125 -82 125 -29 0 -33 -3 -29 -20z"/>
<path d="M1590 2343 l4 -88 6 70 5 70 42 -86 c31 -62 49 -88 65 -93 53 -14 53
-14 53 104 0 67 -4 110 -10 110 -6 0 -9 -36 -7 -92 3 -104 4 -104 -57 17 -33
65 -39 70 -71 73 l-35 3 5 -88z"/>
<path d="M1805 2320 l0 -110 35 0 c117 0 188 77 146 159 -22 41 -63 61 -128
61 l-53 0 0 -110z"/>
</g>
</svg>
